<svg fill="none" height="13" viewBox="0 0 35 13" width="35" xmlns="http://www.w3.org/2000/svg" xmlns:xlink="http://www.w3.org/1999/xlink"><clipPath id="a"><path d="m0 0h34.71v13h-34.71z"/></clipPath><g clip-path="url(#a)"><path d="m25.1875 7.46026c-1.7521-.1291-3.246.69163-3.329 1.84435-.083 1.15269 1.2634 2.17629 3.0155 2.30539s3.2553-.6824 3.3383-1.84431c.083-1.16194-1.2634-2.1671-3.0248-2.30543zm-.2121 2.87714c-.9221-.0645-1.6414-.48871-1.6045-.92213.0368-.43343.8022-.75619 1.7244-.68241.9222.07377 1.6507.48875 1.6507.92217 0 .43347-.8576.75617-1.7706.68237z" fill="#848484"/><path d="m32.0112 3.96204-3.2922-.78432-.763 3.20253 3.2923.78432z" fill="#848484"/><path d="m28.7248 3.17743-.4754-.11327-1.6285 6.83565.4754.11329z" fill="#848484"/><g fill="#ff4b1f"><path d="m21.3698 2.49896c.177-.18674.2757-.43428.2757-.69162 0-.25735-.0987-.50489-.2757-.69163-.0719-.11143-.1669-.206061-.2785-.277451-.1117-.071389-.2375-.117857-.3688-.136237s-.265-.008239-.392.029731c-.127.037971-.2443.102878-.344.190298-.2143.185599-.3477.447499-.3718.729959-.0241.28245.063.56317.2427.7824.1956.20289.4617.32276.7433.33478.2815.01202.5569-.08474.7691-.27023z"/><path d="m16.2148 1.43847c.0121.05934.0125.12049.0009.17995-.0115.05946-.0346.11608-.068.1666-.0334.05053-.0764.09398-.1266.12787s-.1066.05757-.1659.06966c-.0625.02105-.129.02786-.1945.01993-.0654-.00793-.1283-.03039-.184-.06575-.0557-.03535-.1028-.08271-.1378-.1386-.0351-.0559-.0572-.11891-.0647-.18444 0-.28588.1475-.663968.4611-.663968.1258.008845.2441.063438.3324.153478s.1407.2093.1471.33527z"/><path d="m21.13 9.59968c-.1381.12768-.3192.1986-.5072.1986-.1881 0-.3692-.07092-.5072-.1986-.0741-.06821-.1317-.15239-.1685-.24616s-.0517-.19467-.0437-.29507.0387-.19767.0898-.28444c.0512-.08676.1214-.16076.2054-.21638.3504-.28588 1.0051-.34121 1.2357.07377.0652.17214.0706.36121.0154.53682-.0551.17562-.1678.32757-.3197.43146z"/><path d="m11.8714 7.58014c1.3925-.65475 1.7613-1.65069 1.374-2.53598-.6363-1.44781-.4334-3.08005 1.0605-3.03394.6363 0 .9867.64552.7285 1.42936-.3596 1.10661 1.0882.80229 1.1251-.23976-.0102-.37635.1266-.74188.3814-1.01906.2548-.27717.6075-.44419.9834-.46564.581-.05533 1.1988.46109.9222 1.4017-.1199.44265-.747.71008-.2767 1.08817s.8392-.68241 1.8444-.70085c.152-.01491.3054.0082.4464.06726.1409.05905.2649.1522.3609.27107.0961.11887.161.25974.1891.40994.0281.15019.0184.30502-.0282.45055-.2489.67319-.8299.73774-1.3832.78385-.5533.0461-.7009 1.01439.0645.80229s1.6784-.44265 1.577.7654c0 .47031-.6363.79307-1.6784.53486-.3596-.09222-.5994-.13833-.8484.2121-.249.35042-.0553.56252.4242 1.15271.0896.11865.1491.25719.1735.40382.0245.14662.0132.29698-.033.43827-.0462.1413-.1259.26934-.2322.37314-.1064.1039-.2363.1805-.3786.2234-.1667.0639-.3454.0901-.5234.0767s-.3508-.0661-.506-.1543-.2889-.2097-.3916-.35571c-.1026-.14604-.1716-.31301-.202-.4889-.1845-.61786-.6179-1.08816-.9222-.68241-.3043.40576.5717.99595.4703 1.54922-.0614.1508-.1588.2842-.2837.3886-.1249.1043-.2734.1765-.4327.2102-.1592.0337-.3243.0278-.4807-.0171-.1565-.0449-.2995-.1275-.4167-.2405-.9222-.68237-.2951-1.41089-.8761-2.34228-.5809-.9314-1.6045-.33198-2.0472-.2951-.4426.03689-.5625-.28587-.1844-.46108z"/></g><path d="m7.47262 10.6049c-.10278-.0116-.19959-.0543-.27743-.1224-.07785-.0681-.13301-.1583-.15809-.2587-.02509-.1003-.0189-.2059.01774-.30265.03664-.09672.10197-.17993.18724-.23847-.33025-.06083-.64427-.18958-.92217-.37809-.33357-.23485-.59607-.55698-.75873-.93109-.16265-.37412-.2192-.78579-.16344-1.18991-.36125.1972-.7695.29198-1.18067.2741-.41118-.01788-.80966-.14773-1.15243-.37554-.28503-.18752-.5245-.43644-.70085-.72851-.0224.09852-.07424.1879-.14864.25627-.0744.06836-.16783.11248-.2679.12649-.10006.01401-.20202-.00276-.29233-.04806-.09031-.04531-.16471-.11701-.2133-.2056-.23977-.32276-.05533-.6363-.36887-1.42936-.256945.07929-.487135.22772-.665394.42905-.178259.20132-.297721.44779-.3453211.71245-.0475999.26465-.021504.5373.0754331.78812.096938.25082.260983.47016.474195.63401.254753.20701.552697.35424.871887.43084.31919.07661.6515.08064.97246.01181-.2095.09596-.39558.23642-.54528.4116-.1497.17519-.25944.38089-.32156.60279.73773.5533 1.46625.96825 2.42531.13832-.41498 1.20803.24898 1.72443 1.03283 2.19473.18367-.1397.33485-.3175.44311-.5213.10827-.2038.17103-.4286.18397-.659.04468.3251.16356.6356.34746.9075.18389.2718.42786.4977.71303.6602.23074.1369.49481.2074.7631.2038.26828-.0036.53036-.0812.75735-.2242.22699-.1431.41007-.346.52905-.5865.11899-.2405.16926-.5092.14527-.7764-.84839 0-1.06972.2951-1.45703.1937z" fill="#fff"/><path d="m9.45532 1.1157c-2.60053-1.706014-5.65292-1.46625-6.68575.77463-.36396.71731-.51743 1.52299-.44264 2.32387.03755-.07389.08071-.1448.1291-.2121.16774-.24988.38449-.46309.6371-.6267s.53582-.2742.83245-.32508c.29664-.05087.60051-.04097.8932.02911s.5681.19888.80952.37859c.32839.19266.59167.47912.756.82257.16432.34344.2222.72818.16617 1.10477.33521-.19812.72256-.29007 1.11105-.26374.38849.02634.75988.16973 1.06528.41129.26288.15571.49083.36396.66961.61173s.30455.52975.36945.82831c.06491.29856.06755.6073.00777.90693-.05977.29964-.18069.58372-.3552.83452l-.19366.2121c.77159-.23571 1.46163-.68297 1.99193-1.29104 1.6968-1.8259.7746-4.74919-1.76138-6.51976z" fill="#fff"/><path d="m8.44088 5.94789c-.25638-.17453-.55878-.26908-.86892-.2717s-.61409.08681-.87339.25698c-.25929.17017-.46229.41344-.5833.69901s-.15459.60062-.0965.90528c.0581.30466.20525.58525.42285.80625.21761.22101.49587.3725.7996.43532.30372.06281.61925.03413.90667-.08243.28741-.11657.5338-.31576.70797-.57238.11672-.16979.19861-.36104.24093-.56268.04233-.20165.04425-.40968.00566-.61207s-.11693-.39512-.23049-.56704c-.11355-.17192-.26007-.31961-.43108-.43454zm-.09221 1.42937c-.14186.20299-.35854.34133-.60239.38456-.24384.04324-.49488-.01217-.69788-.15402-.20299-.14185-.34133-.35854-.38456-.60239-.04324-.24384.01217-.49488.15402-.69787.14185-.203.35854-.34133.60239-.38457.24384-.04323.49488.01217.69787.15402.203.14186.34133.35854.38457.60239.04323.24384-.01217.49488-.15402.69788z" fill="#fff"/><path d="m5.35164 3.873c-.25626-.17568-.55894-.27125-.86962-.27458s-.61534.08573-.87531.25587c-.25996.17014-.46351.4137-.5848.69974-.12129.28605-.15485.60168-.09641.90683.05843.30515.20622.58606.4246.80706s.49751.37213.80194.43419c.30443.06207.62044.03228.90791-.08559s.53344-.3185.70667-.57642c.11648-.16906.1982-.35959.2404-.5605.04221-.20092.04406-.40822.00545-.60986-.03862-.20164-.11692-.39359-.23037-.56471-.11344-.17111-.25976-.31797-.43046-.43203zm.28587 1.65991c-.14686.18125-.35697.30011-.58798.33263-.23101.03251-.46576-.02374-.65695-.15742-.19103-.12825-.32721-.32328-.38181-.5468s-.02367-.45937.08671-.66125c.14557-.1827.35504-.30336.58612-.33759.23108-.03424.46654.0205.65882.15316.19339.12848.33121.32519.38591.55085.0547.22565.02227.46363-.09082.66642z" fill="#fff"/></g></svg>