<svg width="32" height="12" viewBox="0 0 32 12" fill="none" xmlns="http://www.w3.org/2000/svg">
<path d="M5.30773 9.43017C5.43497 11.0333 7.53006 12.1869 9.99837 11.9748C12.4667 11.7628 14.3667 10.3378 14.2395 8.73468C14.1122 7.13155 12.0171 5.97797 9.54882 6.19003C7.08051 6.40208 5.21443 7.82704 5.30773 9.43017ZM7.43676 9.26895C7.38587 8.64127 8.39525 8.05607 9.69302 7.95428C10.9908 7.8525 12.068 8.29358 12.1189 8.92126C12.1698 9.54894 11.1604 10.1341 9.86265 10.2274C8.56488 10.3207 7.5131 9.89663 7.46221 9.26895H7.43676Z" fill="white"/>
<path d="M1.07327 5.76082L5.70221 4.65805L4.62893 0.152903L-4.05696e-06 1.25567L1.07327 5.76082Z" fill="white"/>
<path d="M6.91857 9.77196L7.58691 9.61273L5.29684 1.21613e-05L4.62849 0.159235L6.91857 9.77196Z" fill="white"/>
<path d="M25.8345 8.62442C26.2247 8.36148 26.53 8.62441 27.3613 8.08155C27.5304 7.95779 27.6767 7.80567 27.7939 7.63197C27.8519 7.75104 27.9326 7.85764 28.0314 7.94581C28.2095 8.09001 29.1765 8.36142 28.6845 9.52348C28.4582 9.5235 28.235 9.47149 28.032 9.37148C27.8291 9.27147 27.6518 9.12619 27.514 8.94675C27.5649 9.00613 28.1841 9.79496 27.7684 10.4226C27.7684 10.4226 27.2171 10.6517 26.5555 9.68469C27.2171 10.6517 26.81 11.0842 26.81 11.0842C26.1059 11.2623 25.5631 10.3802 25.5207 10.3124C25.6475 10.5091 25.7266 10.7326 25.7516 10.9653C25.7767 11.198 25.7469 11.4333 25.6649 11.6525C24.401 11.6525 24.4943 10.694 24.418 10.482C24.373 10.3541 24.3039 10.236 24.2144 10.1342C24.4202 10.0929 24.616 10.0123 24.7912 9.89675C25.6055 9.28603 25.4443 8.88737 25.8345 8.62442Z" fill="#848484"/>
<path d="M21.9751 3.0008C22.5604 2.59366 28.0483 3.849 28.4385 4.89231C28.5233 5.13829 28.2774 5.49449 27.9974 5.79137C27.925 5.56911 27.8222 5.3579 27.6921 5.16369C27.545 4.90243 27.3417 4.67706 27.0969 4.50382C26.8522 4.33058 26.5721 4.21385 26.2768 4.16192C25.9814 4.11 25.6783 4.12418 25.3891 4.20355C25.1 4.28292 24.832 4.42541 24.6046 4.62082C24.0193 5.10431 24.0363 5.46911 23.7564 5.64723C23.4765 5.82536 23.1711 5.64721 22.5095 6.04587C22.2466 6.18716 22.0183 6.38497 21.841 6.62509C21.6638 6.8652 21.542 7.14163 21.4844 7.43447C21.4268 7.72732 21.4348 8.02936 21.508 8.31872C21.5811 8.60809 21.7175 8.87759 21.9073 9.10792C22.0414 9.30383 22.2044 9.47827 22.3908 9.62532C22.0091 9.778 21.5849 9.88825 21.3898 9.71861C20.5755 8.9637 21.4238 3.40795 21.9751 3.0008Z" fill="#848484"/>
<path d="M24.5113 9.01457C24.4493 8.73889 24.4711 8.45097 24.574 8.18778C24.6768 7.9246 24.8561 7.69816 25.0886 7.53764C25.3212 7.37713 25.5964 7.28981 25.879 7.28697C26.1616 7.28412 26.4385 7.36589 26.6743 7.5217C26.9566 7.26761 27.1365 6.91933 27.1804 6.54208C27.2243 6.16484 27.1291 5.7845 26.9127 5.47239C26.6963 5.16028 26.3736 4.93777 26.0049 4.84658C25.6362 4.75539 25.2469 4.8018 24.91 4.97705C24.6795 5.13954 24.5014 5.36568 24.3975 5.62781C24.2935 5.88993 24.2683 6.17666 24.3247 6.45294C24.0881 6.30095 23.8128 6.22017 23.5316 6.22017C23.2504 6.22017 22.9751 6.30095 22.7385 6.45294C22.4677 6.71158 22.2984 7.05859 22.261 7.4312C22.2236 7.80381 22.3208 8.17748 22.5348 8.48474C22.7489 8.792 23.0658 9.01256 23.4282 9.10661C23.7907 9.20067 24.1749 9.162 24.5113 8.99758V9.01457ZM25.0287 5.37568C25.1118 5.27343 25.2176 5.19193 25.3376 5.13764C25.4576 5.08335 25.5887 5.05783 25.7203 5.06299C25.852 5.06814 25.9806 5.10385 26.096 5.16736C26.2114 5.23087 26.3105 5.32046 26.3853 5.4289C26.4601 5.53735 26.5086 5.66167 26.527 5.79213C26.5454 5.92258 26.5331 6.05552 26.4912 6.18041C26.4493 6.30531 26.3789 6.4187 26.2855 6.51164C26.1921 6.60459 26.0784 6.67459 25.9533 6.71593C25.7791 6.83736 25.5657 6.88906 25.3553 6.86079C25.1448 6.83252 24.9526 6.7263 24.8167 6.56321C24.752 6.47153 24.7062 6.3679 24.6818 6.25838C24.6575 6.14886 24.6551 6.03563 24.6748 5.92518C24.6945 5.81474 24.736 5.70929 24.7967 5.61497C24.8575 5.52065 24.9363 5.43932 25.0287 5.37568V5.37568ZM22.8064 7.92033C22.6771 7.73249 22.6276 7.50101 22.669 7.27672C22.7103 7.05242 22.8391 6.85367 23.027 6.72432C23.2148 6.59497 23.4463 6.54556 23.6706 6.58692C23.8949 6.62828 24.0936 6.75702 24.2229 6.94486C24.3422 7.1322 24.3833 7.35888 24.3373 7.57616C24.2913 7.79344 24.1619 7.98399 23.977 8.10692C23.793 8.23218 23.5672 8.28015 23.3483 8.24048C23.1293 8.20082 22.9347 8.07669 22.8064 7.89486V7.92033Z" fill="#848484"/>
<path d="M13.8831 4.73953C13.7535 4.60515 13.6812 4.42578 13.6812 4.23911C13.6812 4.05244 13.7535 3.87307 13.8831 3.73869C13.9368 3.66156 14.0058 3.59623 14.0858 3.54683C14.1658 3.49743 14.255 3.46498 14.3481 3.45147C14.4411 3.43795 14.5359 3.44365 14.6266 3.46824C14.7174 3.49284 14.8021 3.53581 14.8755 3.59446C15.0315 3.7278 15.1293 3.91669 15.1483 4.12097C15.1673 4.32525 15.106 4.52888 14.9773 4.68869C14.8304 4.82514 14.6399 4.9051 14.4395 4.91441C14.2392 4.92373 14.0421 4.86176 13.8831 4.73953V4.73953Z" fill="#FF4B1F"/>
<path d="M17.5983 4.01857C17.5832 4.10498 17.6022 4.1939 17.6512 4.26665C17.7002 4.3394 17.7755 4.39029 17.8613 4.40871C17.9059 4.42432 17.9535 4.42962 18.0005 4.42424C18.0475 4.41887 18.0927 4.40304 18.1326 4.37775C18.1726 4.35247 18.2064 4.31841 18.2313 4.27825C18.2563 4.23809 18.2719 4.19285 18.2769 4.14582C18.2769 3.94225 18.1751 3.66228 17.9461 3.66228C17.8545 3.66845 17.7683 3.70827 17.7042 3.774C17.64 3.83973 17.6023 3.92679 17.5983 4.01857Z" fill="#FF4B1F"/>
<path d="M14.0528 9.8713C14.1518 9.96372 14.2821 10.0151 14.4175 10.0151C14.553 10.0151 14.6833 9.96372 14.7823 9.8713C14.8356 9.8217 14.877 9.76063 14.9034 9.69279C14.9298 9.62495 14.9405 9.55208 14.9348 9.4795C14.9291 9.40692 14.9071 9.33653 14.8704 9.27366C14.8337 9.21078 14.7833 9.15704 14.7229 9.11638C14.4685 8.9128 14.0019 8.87883 13.8323 9.17571C13.7879 9.2998 13.7854 9.43504 13.8252 9.56067C13.8651 9.68631 13.945 9.79547 14.0528 9.8713V9.8713Z" fill="#FF4B1F"/>
<path d="M20.7368 8.40385C19.7274 7.93733 19.4644 7.21632 19.7443 6.57167C20.2024 5.52837 20.0582 4.34929 18.9725 4.3917C18.5144 4.3917 18.2685 4.85829 18.4551 5.41811C18.718 6.22392 17.6662 6.00332 17.6068 5.2484C17.6162 4.97813 17.5193 4.71497 17.337 4.51522C17.1547 4.31547 16.9014 4.195 16.6314 4.17964C16.2073 4.12875 15.7832 4.5105 15.9444 5.18907C16.0292 5.50291 16.4787 5.69804 16.1394 5.96947C15.8001 6.2409 15.5372 5.47743 14.8247 5.46895C14.7185 5.46465 14.6127 5.48506 14.5157 5.52859C14.4186 5.57212 14.333 5.63761 14.2656 5.71983C14.1982 5.80205 14.1508 5.89884 14.1271 6.0025C14.1034 6.10616 14.1041 6.21382 14.1292 6.31717C14.3073 6.80065 14.7229 6.8431 15.1216 6.88551C15.5202 6.92792 15.6305 7.61502 15.0792 7.46234C14.5278 7.30966 13.8662 7.13993 13.9341 8.0136C13.9341 8.35288 14.4006 8.58196 15.147 8.39536C15.41 8.33598 15.5796 8.29352 15.7662 8.55647C15.9528 8.81942 15.7662 8.95513 15.4609 9.40469C15.3894 9.48714 15.3404 9.58659 15.3185 9.69346C15.2965 9.80034 15.3025 9.91104 15.3357 10.015C15.3689 10.1189 15.4283 10.2125 15.5082 10.2869C15.588 10.3612 15.6856 10.4138 15.7917 10.4395C15.9123 10.4919 16.0435 10.5155 16.1749 10.5084C16.3062 10.5014 16.4341 10.4639 16.5485 10.3989C16.6629 10.3339 16.7605 10.2432 16.8338 10.1339C16.9071 10.0247 16.9539 9.89993 16.9707 9.76946C17.0979 9.31991 17.4118 8.98056 17.6323 9.27743C17.8528 9.57431 17.2167 9.98998 17.293 10.3886C17.3354 10.4987 17.4044 10.5965 17.4938 10.6733C17.5833 10.7501 17.6904 10.8035 17.8055 10.8287C17.9207 10.8539 18.0403 10.8501 18.1537 10.8177C18.267 10.7853 18.3706 10.7254 18.4551 10.6432C19.1336 10.1512 18.6756 9.61681 19.0912 8.94672C19.5069 8.27663 20.2533 8.70922 20.5671 8.73466C20.881 8.76011 21.0082 8.53108 20.7368 8.40385Z" fill="#FF4B1F"/>
</svg>
